<svg xmlns="http://www.w3.org/2000/svg" xmlns:xlink="http://www.w3.org/1999/xlink" width="765" height="553" viewBox="0 0 765 553">
  <defs>
    <clipPath id="clip-Web_1920_1">
      <rect width="765" height="553"/>
    </clipPath>
  </defs>
  <g id="Web_1920_1" data-name="Web 1920 – 1" clip-path="url(#clip-Web_1920_1)">
    <ellipse id="Ellipse_1" data-name="Ellipse 1" cx="186.5" cy="67.5" rx="186.5" ry="67.5" transform="translate(55 336)" fill="#707070"/>
    <g id="humaaans_standing-8" data-name="humaaans/standing-8" transform="translate(92.319 -38)">
      <g id="A-Human_Standing" data-name="A-Human/Standing" transform="translate(40 27)">
        <g id="Head_Front_Long" data-name="Head/Front/Long" transform="translate(82)">
          <path id="Hair-Back" d="M95.762,45.29c3.447,12.7,7.939,41.254,3.355,45.732h-29l-.009-.154A21.5,21.5,0,0,1,51,69.5v-21A21.5,21.5,0,0,1,72.5,27h2A21.505,21.505,0,0,1,95.762,45.29Z" fill="#191847" fill-rule="evenodd"/>
          <g id="Head" transform="translate(54 31)">
            <path id="Path_1" data-name="Path 1" d="M8.262,34.49C3.654,29.081.536,22.453,1.057,15.025c1.5-21.4,31.292-16.693,37.087-5.892s5.106,38.2-2.383,40.13c-2.987.77-9.349-1.116-15.825-5.019L24,73H0Z" fill="#d4a181" fill-rule="evenodd"/>
          </g>
          <path id="Hair-Front" d="M68.75,61.875c1.106,11.878.663,25.442-2.633,28.662h-29c-1.616-28.074,14-17.2,14-43.634.974-.951,1.894-1.893,2.8-2.7l-.032-.777Q61.421,28,73,28c11.58,0,15.235,5.388,18.347,9.963C89.022,45.948,79.99,47.132,71.966,52.11A5.5,5.5,0,1,0,68.5,61.88Q68.626,61.88,68.75,61.875Z" fill="#191847" fill-rule="evenodd"/>
        </g>
        <g id="Bottom_Standing_Skirt" data-name="Bottom/Standing/Skirt" transform="translate(0 187)">
          <path id="Skirt-Shadow" d="M97.408,98.088q35.984,10.065,62.092,10.065t48.5-15.5q-35.214-10.331-58-10.331T97.408,98.088Z" fill="#1f28cf" fill-rule="evenodd"/>
          <path id="Leg" d="M180.267,117.824a5.657,5.657,0,0,1-.582-1.136C176.479,108.208,125.117,16.726,120,0h57.826c3.89,12.717,21.4,92.52,23.865,108.442,7.775,25.115,23.784,106.454,25.828,112.088,2.15,5.928-9.947,12.1-13.17,4.816-5.129-11.6-17.35-43.681-22.792-63.271C186.456,143.708,182.3,127.185,180.267,117.824Z" fill="#ba8b72" fill-rule="evenodd"/>
          <path id="Leg-2" data-name="Leg" d="M132.957,128.994c-23.482,5.935-109.373,16.664-115.267,18.347-6.063,1.731-11.38-10.767-3.885-13.474,11.925-4.308,44.784-14.261,64.707-18.322,16.025-3.267,30.647-5.933,40.465-7.494-.832-27.577-4.634-93.757-2.142-108.05H168c-2.39,13.707-22.59,113.718-26.344,123.729-1.191,3.574-4.747,5.153-8.7,5.265Z" fill="#d4a181" fill-rule="evenodd"/>
          <g id="Accessories_Shoe_Flat-Sneaker" data-name="Accessories/Shoe/Flat-Sneaker" transform="translate(38.9 123.49) rotate(80)">
            <path id="shoe" d="M2.678,25.4A21.472,21.472,0,0,0,1,32.106,50.177,50.177,0,0,0,1.9,40H58.3q2.2-7.268-2.538-7.848T47.9,31.106L21.68,19.419a1,1,0,0,0-1.321.506l-.011.026-1.685,4.088a17.984,17.984,0,0,1-7.127,2.046,16.139,16.139,0,0,1-6.152-1.8h0a2,2,0,0,0-2.652.985Q2.7,25.335,2.678,25.4Z" fill="#e4e4e4" fill-rule="evenodd"/>
          </g>
          <g id="Accessories_Shoe_Flat-Sneaker-2" data-name="Accessories/Shoe/Flat-Sneaker" transform="translate(208 199)">
            <path id="shoe-2" data-name="shoe" d="M2.678,25.4A21.472,21.472,0,0,0,1,32.106,50.177,50.177,0,0,0,1.9,40H58.3q2.2-7.268-2.538-7.848T47.9,31.106L21.68,19.419a1,1,0,0,0-1.321.506l-.011.026-1.685,4.088a17.984,17.984,0,0,1-7.127,2.046,16.139,16.139,0,0,1-6.152-1.8h0a2,2,0,0,0-2.652.985Q2.7,25.335,2.678,25.4Z" fill="#e4e4e4" fill-rule="evenodd"/>
          </g>
          <path id="Skirt" d="M117,0q33.82-9.676,64,0c7,31.937,24.009,44.613,27,93.579-34,16.894-76-12.048-111,4.426C87,74.961,101,19.465,117,0Z" fill="#2b44ff" fill-rule="evenodd"/>
        </g>
        <g id="Body_Long-Sleeve" data-name="Body/Long-Sleeve" transform="translate(22 82)">
          <path id="Skin" d="M192,65.311l39.483-5.386A86.07,86.07,0,0,1,253.281,51c1.867-.055,4.836.624.412,4.312s-8.913,7.768-8.125,9.736,4.9,1.236,5.584,4.263q.682,3.027-20.032.984L199.084,83ZM67.97,74.45l21.9.082q-36.017,81.051-37.559,84.874c-2.314,5.735,2.583,14.468,4.677,19.162-6.82,3.052-6.093-8.25-14.7-4.248-7.853,3.653-13.826,10.273-22.9,4.675-1.115-.688-2.338-3.28.616-5.3,7.358-5.045,17.961-13.875,19.393-16.781Q42.328,150.963,67.97,74.45Z" fill="#d4a181" fill-rule="evenodd"/>
          <path id="Clothes-Back" d="M123.474,9.669l17.179-.356C148.189,47,173.2,69.034,223.79,56.408l11.1,48.411c-47.4,10.391-91.133-5.126-104.3-56.344C127.188,35.216,124.2,21.368,123.474,9.669Z" transform="translate(5.788 -15.394) rotate(5)" fill="#afb9c5" fill-rule="evenodd"/>
          <path id="Clothes" d="M119.491.016l25.977,5.949C145.468,50.644,159.7,79.15,167,112H96.844c-.988,11.351-1.6,23.018-1.911,35H42.4Q60.257,52,117.776,0h1.7Z" fill="#c5cfd6" fill-rule="evenodd"/>
          <path id="Shade" d="M107.912,48.259Q105.2,90.021,111.1,112H96.844c1.958-22.486,5.412-43.733,11.069-63.741Z" fill="rgba(0,0,0,0.1)" fill-rule="evenodd"/>
        </g>
      </g>
    </g>
    <path id="Icon_material-undo" data-name="Icon material-undo" d="M38.571,13.888A35.451,35.451,0,0,0,15.2,22.7L3,10.5V40.99H33.49L21.226,28.726A27,27,0,0,1,64.318,40.99l8.029-2.642A35.618,35.618,0,0,0,38.571,13.888Z" transform="matrix(0.682, -0.731, 0.731, 0.682, 443.152, 108.24)" fill="#5d13e7"/>
    <path id="Icon_material-undo-2" data-name="Icon material-undo" d="M38.571,13.888A35.451,35.451,0,0,0,15.2,22.7L3,10.5V40.99H33.49L21.226,28.726A27,27,0,0,1,64.318,40.99l8.029-2.642A35.618,35.618,0,0,0,38.571,13.888Z" transform="matrix(-0.695, 0.719, -0.719, -0.695, 598.363, 197.029)" fill="#5d13e7"/>
    <text id="英" transform="matrix(1, -0.017, 0.017, 1, 451.975, 149.58)" fill="#cba5e3" font-size="60" font-family="HiraginoSans-W6, Hiragino Sans"><tspan x="0" y="53">英</tspan></text>
    <text id="和" transform="matrix(1, -0.017, 0.017, 1, 521.975, 99.58)" fill="#cba5e3" font-size="60" font-family="HiraginoSans-W6, Hiragino Sans"><tspan x="0" y="53">和</tspan></text>
  </g>
</svg>
